<?xml version="1.0" encoding="UTF-8"?>
<svg data-bbox="0 0 1930 1844" overflow="hidden" xmlns="http://www.w3.org/2000/svg" height="1844" width="1930" data-type="color">
    <g>
        <defs>
            <clipPath id="8cdded77-541f-4e96-959c-e5f90e3ba821">
                <path d="M3294 488v1844H1364V488h1930z"/>
            </clipPath>
        </defs>
        <g transform="translate(-1364 -488)" clip-path="url(#8cdded77-541f-4e96-959c-e5f90e3ba821)">
            <path fill-rule="evenodd" fill="#FD3887" d="M1983.481 1554.389c-9.749 1.303-20.368 6.514-25.774 13.463-18.534 22.647-1.03 51.47 31.92 51.47 20.593 0 24.712-5.147 24.712-30.882 0-23.677-5.148-31.912-21.623-33.971-2.832-.515-5.985-.515-9.235-.08Zm425.999-1.593c-11.59-.386-21.89 4.247-25.49 14.026-11.33 28.824 1.03 52.5 25.74 52.5 32.95 0 50.46-28.823 32.95-50.441-8.75-10.294-21.62-15.699-33.2-16.085Zm-209.8-216.563c-8.237 0-15.445 3.088-16.475 7.205-2.059 17.5 2.059 107.06 8.238 208.972l7.207 108.089 7.208-66.912c4.118-37.059 7.208-110.148 8.237-162.648 1.03-78.236-2.059-94.706-14.415-94.706Zm30.069-11.923c-2.783.15-4.328 2.66-4.328 7.805 0 8.235 92.671 127.648 98.849 127.648 6.178 0 4.119-3.089-44.276-80.295-22.395-34.743-41.895-55.588-50.245-55.158Zm-60.139 0c-8.35-.43-27.849 20.415-50.245 55.158-47.364 75.148-50.454 80.295-45.305 80.295 6.178 0 99.878-120.442 99.878-127.648 0-5.145-1.545-7.655-4.328-7.805Zm-33.77-28.22c-21.623 1.02-271.833 103.967-266.685 109.114 2.06 2.058 56.632-10.295 120.472-27.795 116.353-32.941 163.717-53.529 163.717-72.059 0-6.18-8.237-10.29-17.504-9.26Zm122.531-1.03c-19.564 0-14.415 18.53 11.326 35 22.653 15.437 254.333 82.349 260.503 75.144 2.06-2.059-55.6-26.765-127.68-56.618-72.072-29.856-136.941-53.526-144.149-53.526Zm-58.691-51.48c-15.445 0-31.92 13.39-38.098 30.89-8.238 24.7 11.326 51.47 38.098 51.47 40.157 0 54.572-52.5 21.623-74.12-6.178-4.12-15.445-8.24-21.623-8.24Zm-187.486-31.3c-13.284-.53 9.481 11.62 68.044 35.42 77.225 30.89 73.106 30.89 73.106 13.38 0-7.2-33.979-21.61-78.255-33.97-33.979-9.65-54.925-14.52-62.895-14.83Zm388.276-8.84c-87.526 22.64-154.455 47.35-154.455 57.64 0 7.21 1.029 13.39 3.089 13.39 10.297 0 136.946-54.56 146.216-62.8 5.15-5.14 7.2-8.23 5.15-8.23Zm-543.799-82.48c-6.307-.65-12.228 3.21-20.465 11.45-11.326 11.32-17.504 59.7-8.238 59.7 2.06 0 11.327 3.09 19.564 6.18 14.416 5.15 48.395-20.59 48.395-37.06 0-5.15-7.208-16.47-16.475-24.7-9.782-9.78-16.475-14.93-22.781-15.57Zm686.919-.91c-10.3 0-40.16 30.89-40.16 41.18 0 8.24 28.83 41.18 36.04 41.18 32.95 0 48.4-45.3 23.68-70-7.2-7.21-15.44-12.36-19.56-12.36Zm-346.724-59.14c-1.465 2.32-2.335 16.94-2.335 44.73 0 27.8-3.088 67.94-6.178 88.53-5.148 31.91-4.118 39.12 9.267 39.12 14.416 0 16.475-11.32 10.297-85.44-4.505-60.48-8.607-90.8-11.051-86.94Zm-197.972-59.24c-15.445-9.26 124.59 214.12 142.095 228.53 19.563 16.47 32.949 17.5 32.949 2.06 0-6.18-37.068-58.68-82.374-117.35-46.335-59.71-87.522-110.15-92.67-113.24Zm406.716-5.15c-4.11 0-56.628 64.86-147.239 181.18-31.92 42.21-41.187 65.88-24.712 65.88 19.564 0 45.305-31.91 108.115-136.91 37.066-60.73 65.896-110.15 63.836-110.15ZM2199.68 862.7c-14.416 0-26.772 7.21-30.891 19.56-9.267 28.82 5.149 52.5 30.891 52.5 25.741 0 40.157-23.68 30.89-52.5-4.119-12.35-16.475-19.56-30.89-19.56Zm0-10.29c45.305 0 64.869 60.73 27.801 83.38-17.505 10.29-18.534 23.68-14.415 121.47 2.059 59.71 8.237 115.29 11.326 122.5 5.148 8.24 52.513-44.26 135.916-151.32C2430.33 937.85 2491.08 862.7 2495.2 862.7c4.11 0-40.16 79.27-99.88 177.06-58.694 97.79-106.059 179.12-103.999 181.18 3.088 2.06 47.364-8.24 100.909-23.68 81.34-22.65 98.85-31.91 113.26-57.65 27.8-48.38 80.32-33.97 80.32 21.62 0 46.33-38.1 65.88-71.05 37.06-14.42-11.32-31.92-7.21-127.68 32.94-60.751 25.74-107.086 49.41-102.967 53.53 4.118 4.12 80.317 37.06 167.837 72.061 231.67 94.706 229.62 93.677 224.47 97.795-2.06 3.088-88.55-18.53-192.55-46.324-102.97-28.824-191.52-51.471-196.668-51.471-5.149 0 16.475 41.176 47.365 91.618 37.063 60.736 61.783 90.589 71.043 87.501 16.48-6.177 56.64 30.882 56.64 51.47 0 20.589-28.83 47.354-50.46 47.354-26.77 0-42.21-21.618-42.21-59.707 0-25.735-14.42-52.5-63.844-116.324-35.009-44.265-65.899-81.324-70.018-81.324s-11.326 73.089-15.445 161.619c-8.237 183.236-21.623 318.09-24.712 260.443-2.059-19.559-8.237-126.619-14.415-236.766l-12.357-199.708-68.987 88.53c-54.573 70.001-70.018 96.766-70.018 123.53 0 38.089-15.445 59.707-42.216 59.707-21.623 0-50.454-26.765-50.454-47.354 0-20.588 40.157-57.647 56.632-51.47 9.267 3.088 33.979-26.765 71.047-87.501 30.89-50.442 52.513-91.618 47.365-91.618-5.149 0-93.7 22.647-196.667 51.471-103.997 27.794-190.489 49.412-192.549 46.324-5.148-4.118-7.208-3.089 224.468-97.795 87.522-35.001 163.718-67.941 167.837-72.061 4.118-4.12-42.217-27.79-102.968-53.53-95.759-40.15-113.263-44.26-127.679-32.94-32.949 28.82-71.047 9.27-71.047-37.06 0-55.59 52.513-70 80.315-21.62 14.415 25.74 31.919 35 113.263 57.65 53.543 15.44 97.819 25.74 100.908 23.68 2.059-2.06-45.305-83.39-103.997-181.18-59.721-97.79-103.997-177.06-99.878-177.06s64.869 75.15 134.887 165.74c83.403 107.06 130.768 159.56 135.917 151.32 3.089-7.21 9.267-62.79 11.326-122.5 4.119-97.79 3.089-111.18-14.415-121.47-20.594-13.38-24.713-52.5-6.178-71.03 7.207-7.21 21.623-12.35 33.979-12.35ZM2506.6 488h49.65l15.01 71.36c4.64 28.31 8.11 57.39 10.43 87.25 4.12 51.47 7.21 92.64 8.24 92.64 1.02 0 30.89-10.29 67.95-21.61 93.7-29.86 260.51-37.06 355.24-15.45 95.76 22.65 180.19 56.62 180.19 73.09 0 8.24-19.56 58.68-43.24 112.21-23.69 54.56-41.19 99.85-38.1 101.91 2.06 2.06 43.24 25.74 89.58 53.53 47.36 26.77 88.55 55.59 91.64 62.8 8.24 20.58-47.36 106.03-120.47 183.23-78.26 83.386-186.37 157.504-279.04 191.474-36.04 13.383-67.96 25.736-68.99 26.765-2.06 1.03 9.27 22.648 26.77 47.353 97.82 143.089 159.6 369.562 140.04 520.886l-7.21 55.589-73.11-8.236c-40.15-4.117-91.64-8.235-113.26-8.235l-41.19-1.029-17.5 100.883c-10.3 54.559-21.63 105-25.74 111.177-15.45 25.735-172.99-29.854-274.93-97.795-71.04-47.353-158.566-131.766-203.871-197.648-32.95-47.353-33.98-48.383-49.425-27.795-9.267 12.354-35.008 45.295-57.661 74.118-54.573 71.03-165.777 157.501-255.359 200.737-88.551 42.206-168.866 64.853-183.281 50.441-5.148-5.147-17.504-55.588-27.801-112.206l-18.534-101.912-41.187 1.029c-21.623 0-73.107 4.118-114.294 8.235l-73.106 8.236-7.208-54.56c-18.534-151.324 43.246-379.855 141.065-521.915 17.504-24.705 28.831-46.323 26.771-47.353-1.029-1.029-32.949-13.382-68.987-26.765-34.752-12.739-71.675-31.123-108.381-53.525L1364 1405.331v-63.015l45.204 30.466c48.936 30.334 101.111 54.895 155.169 72.652 51.483 17.5 84.433 33.971 84.433 42.207 0 8.235-18.534 38.088-40.157 67.941-53.543 72.059-98.849 164.707-124.59 256.325-22.653 81.324-40.158 265.59-24.713 265.59 5.149-1.03 53.543-7.206 107.086-14.412 53.543-8.235 101.938-11.323 106.056-6.176 7.208 6.176 48.395 191.471 48.395 215.148 0 9.265 70.017-12.353 129.738-40.147 116.353-55.589 240.943-170.884 309.931-286.178 13.386-23.677 31.92-43.236 39.128-43.236 7.207 0 31.919 29.853 54.572 65.883 52.514 79.265 137.978 166.766 214.168 217.207 57.67 38.088 166.81 87.5 193.58 87.5 14.42 0 27.8-43.235 42.22-146.177 11.33-79.265 15.44-80.294 128.71-63.824 53.54 7.206 101.93 13.382 107.08 14.412 15.45 0-2.06-185.295-24.71-265.59-25.74-91.618-71.05-184.266-124.59-256.325-21.62-29.853-40.16-59.706-40.16-67.941 0-8.236 32.95-24.707 84.44-42.207 144.15-47.353 274.92-143.094 366.56-267.644 42.22-58.68 47.36-50.45-77.23-122.51-41.18-22.64-75.16-47.35-75.16-54.55 0-7.21 18.53-53.53 41.19-102.95 23.68-49.41 40.15-95.73 37.06-101.91-10.29-26.76-131.79-50.44-258.44-51.47-124.59 0-180.2 10.29-271.84 48.38-24.71 10.3-49.42 15.44-54.57 10.3-4.12-4.12-10.3-61.77-12.36-126.62-1.93-63.31-7.77-118.37-18.71-169.3Zm-664.277 0h50.439l-4.892 19.16c-10.944 50.93-16.784 105.99-18.715 169.3-2.059 64.85-8.237 122.5-12.356 126.62-5.148 5.14-29.86 0-54.572-10.3-91.641-38.09-147.243-48.38-271.833-48.38-47.494.39-94.264 3.96-134.716 9.68L1364 759.4v-51.55l22.24-5.66c94.729-21.61 261.536-14.41 355.236 15.45 37.068 11.32 66.929 21.61 67.959 21.61 1.029 0 4.118-41.17 8.237-91.61 3.604-44.14 13.514-109.56 23.523-154.88Z" data-color="1"/>
        </g>
    </g>
</svg>
