<?xml version="1.0" encoding="UTF-8"?>
<svg data-bbox="0 0 2188 2190" overflow="hidden" xmlns="http://www.w3.org/2000/svg" height="2190" width="2188" data-type="color">
    <g>
        <defs>
            <clipPath id="73dc79e1-e276-46f5-9737-43d804516e69">
                <path d="M3294 142v2190H1106V142h2188z"/>
            </clipPath>
        </defs>
        <g transform="translate(-1106 -142)" clip-path="url(#73dc79e1-e276-46f5-9737-43d804516e69)">
            <path fill-rule="evenodd" fill="#FD3887" d="M1993.097 1554.401c-11.323-2.059-27.793 4.118-34.999 13.384-18.528 22.649-1.029 51.475 31.911 51.475 20.587 0 24.705-5.147 24.705-30.885 0-23.679-5.147-31.915-21.617-33.974Zm416.633-1.673c-11.58-.386-21.87 4.247-25.47 14.027-11.33 28.827 1.03 52.505 25.73 52.505 32.94 0 50.44-28.826 32.94-50.446-8.75-10.295-21.62-15.7-33.2-16.086ZM2200 1336.146c-8.23 0-15.44 3.088-16.47 7.206-2.06 17.502 2.06 107.069 8.24 208.99l7.2 108.099 7.21-66.918c4.11-37.063 7.2-110.158 8.23-162.663 1.03-78.242-2.06-94.714-14.41-94.714Zm30.06-11.916c-2.78.14-4.33 2.65-4.33 7.798 0 8.236 92.65 127.659 98.82 127.659 6.18 0 4.12-3.089-44.26-80.302-22.39-34.746-41.88-55.595-50.23-55.155Zm-60.12 0c-8.35-.44-27.84 20.409-50.23 55.155-47.352 75.154-50.44 80.302-45.293 80.302 6.176 0 99.853-120.453 99.853-127.659 0-5.148-1.55-7.658-4.33-7.798Zm-33.76-28.24c-21.62 1.03-271.754 103.985-266.607 109.133 2.058 2.059 56.615-10.295 120.436-27.797 116.321-32.944 163.671-53.536 163.671-72.066 0-6.18-8.24-10.29-17.5-9.27Zm122.49-1.02c-19.55 0-14.41 18.53 11.33 35 22.64 15.441 254.25 82.359 260.43 75.153 2.06-2.059-55.59-26.768-127.64-56.623-72.06-29.86-136.91-53.53-144.12-53.53Zm-58.67-51.48c-15.44 0-31.91 13.38-38.09 30.89-8.23 24.7 11.33 51.47 38.09 51.47 40.15 0 54.56-52.5 21.62-74.12-6.18-4.12-15.44-8.24-21.62-8.24Zm-187.431-31.31c-13.28-.52 9.479 11.62 68.024 35.43 77.207 30.88 73.087 30.88 73.087 13.38 0-7.2-33.97-21.62-78.234-33.97-33.969-9.65-54.91-14.53-62.877-14.84Zm388.161-8.84c-87.5 22.65-154.41 47.36-154.41 57.65 0 7.21 1.03 13.39 3.09 13.39 10.29 0 136.91-54.57 146.17-62.8 5.15-5.15 7.21-8.24 5.15-8.24Zm-543.638-82.49c-6.305-.64-12.224 3.22-20.459 11.45-11.323 11.33-17.5 59.71-8.235 59.71 2.058 0 11.323 3.09 19.558 6.18 14.411 5.15 48.38-20.59 48.38-37.06 0-5.15-7.205-16.47-16.47-24.71-9.779-9.78-16.47-14.93-22.774-15.57Zm686.718-.9c-10.29 0-40.15 30.88-40.15 41.18 0 8.24 28.83 41.18 36.03 41.18 32.94 0 48.38-45.3 23.68-70.01-7.21-7.2-15.44-12.35-19.56-12.35Zm-346.62-59.15c-1.47 2.32-2.34 16.94-2.34 44.74 0 27.79-3.08 67.94-6.17 88.53-5.15 31.92-4.12 39.12 9.26 39.12 14.41 0 16.47-11.32 10.3-85.44-4.51-60.49-8.61-90.81-11.05-86.95Zm-197.917-59.24c-15.44-9.27 124.557 214.13 142.057 228.55 19.55 16.47 32.94 17.5 32.94 2.06 0-6.18-37.06-58.69-82.354-117.37-46.321-59.71-87.496-110.16-92.643-113.24Zm406.597-5.15c-4.11 0-56.61 64.86-147.2 181.19-31.91 42.21-41.17 65.89-24.7 65.89 19.56 0 45.29-31.91 108.08-136.92 37.06-60.75 65.88-110.16 63.82-110.16ZM2200 862.57c-14.41 0-26.76 7.21-30.88 19.56-9.27 28.83 5.15 52.51 30.88 52.51 25.73 0 40.15-23.68 30.88-52.51-4.12-12.35-16.47-19.56-30.88-19.56Zm0-10.29c45.29 0 64.85 60.74 27.79 83.39-17.5 10.29-18.53 23.68-14.41 121.48 2.06 59.71 8.24 115.3 11.33 122.51 5.14 8.24 52.49-44.27 135.87-151.34 70-90.59 130.73-165.75 134.85-165.75 4.12 0-40.15 79.27-99.85 177.08-58.67 97.8-106.02 179.13-103.97 181.19 3.09 2.06 47.35-8.24 100.88-23.68 81.32-22.65 98.82-31.91 113.23-57.65 27.8-48.39 80.29-33.97 80.29 21.62 0 46.33-38.08 65.89-71.02 37.06-14.41-11.32-31.91-7.21-127.64 32.95-60.74 25.73-107.06 49.41-102.94 53.53 4.12 4.12 80.29 37.06 167.79 72.066 231.6 94.715 229.55 93.685 224.4 97.803-2.06 3.089-88.53-18.531-192.49-46.328-102.94-28.826-191.47-51.475-196.61-51.475-5.15 0 16.47 41.18 47.35 91.626 37.05 60.741 61.76 90.597 71.02 87.508 16.47-6.177 56.62 30.885 56.62 51.476 0 20.59-28.82 47.357-50.44 47.357-26.76 0-42.2-21.62-42.2-59.711 0-25.738-14.42-52.505-63.82-116.335-35-44.269-65.88-81.331-70-81.331-4.12 0-11.32 73.095-15.44 161.633-8.24 183.252-21.62 318.118-24.71 260.465-2.06-19.56-8.23-126.629-14.41-236.787l-12.35-199.724-68.969 88.538c-54.556 70.006-69.997 96.773-69.997 123.541 0 38.091-15.44 59.711-42.204 59.711-21.617 0-50.439-26.767-50.439-47.357 0-20.591 40.145-57.653 56.615-51.476 9.265 3.089 33.969-26.767 71.027-87.508 30.881-50.446 52.497-91.626 47.347-91.626-5.14 0-93.669 22.649-196.606 51.475-103.966 27.797-190.433 49.417-192.492 46.328-5.147-4.118-7.206-3.088 224.403-97.803 87.496-35.006 163.665-67.946 167.785-72.066 4.12-4.12-42.202-27.8-102.935-53.53-95.731-40.16-113.231-44.27-127.642-32.95-32.94 28.83-71.026 9.27-71.026-37.06 0-55.59 52.497-70.01 80.29-21.62 14.412 25.74 31.911 35 113.231 57.65 53.527 15.44 97.79 25.74 100.882 23.68 2.06-2.06-45.296-83.39-103.97-181.19-59.703-97.81-103.966-177.08-99.849-177.08 4.118 0 64.85 75.16 134.847 165.75 83.382 107.07 130.732 159.58 135.882 151.34 3.08-7.21 9.26-62.8 11.32-122.51 4.12-97.8 3.09-111.19-14.41-121.48-20.59-13.39-24.71-52.51-6.18-71.04 7.21-7.21 21.62-12.35 33.97-12.35Zm-166.758-649.54-42.204 64.86c-83.379 129.72-116.319 239.88-121.465 408.71-2.059 64.86-8.235 122.52-12.353 126.63-5.147 5.15-29.852 0-54.556-10.29-91.614-38.09-147.2-48.39-271.754-48.39-126.612 1.03-248.078 24.71-258.372 51.48-3.088 6.17 13.382 52.5 37.058 101.92 22.646 49.42 41.174 95.74 41.174 102.95 0 7.21-33.969 31.91-74.114 54.56-125.583 72.07-120.437 63.83-78.232 122.51 91.613 124.58 222.343 220.32 366.455 267.677 51.469 17.502 84.408 33.974 84.408 42.21 0 8.236-18.528 38.092-40.145 67.947-53.527 72.066-98.819 164.722-124.554 256.348-22.646 81.331-40.145 265.613-24.705 265.613 5.147-1.03 53.528-7.207 107.055-14.413 53.527-8.236 101.907-11.325 106.025-6.177 7.206 6.177 48.38 191.488 48.38 215.167 0 9.265 69.997-12.354 129.701-40.151 116.319-55.593 240.872-170.898 309.836-286.203 13.39-23.679 31.91-43.24 39.12-43.24 7.21 0 31.91 29.856 54.56 65.889 52.49 79.272 137.93 166.78 214.11 217.226 57.64 38.092 166.75 87.508 193.52 87.508 14.41 0 27.79-43.239 42.2-146.19 11.32-79.272 15.44-80.301 128.67-63.829 53.53 7.206 101.91 13.383 107.06 14.413 15.44 0-2.06-185.312-24.71-265.613-25.73-91.626-71.02-184.282-124.55-256.348-21.62-29.855-40.15-59.711-40.15-67.947 0-8.236 32.94-24.708 84.41-42.21 144.11-47.357 274.84-143.097 366.46-267.677 42.2-58.68 47.35-50.44-77.21-122.51-41.17-22.65-75.14-47.35-75.14-54.56 0-7.21 18.53-53.53 41.17-102.95 23.68-49.42 40.15-95.75 37.06-101.92-10.29-26.77-131.76-50.45-258.37-51.48-124.55 0-180.14 10.3-271.75 48.39-24.71 10.29-49.41 15.44-54.56 10.29-4.12-4.11-10.29-61.77-12.35-126.63-5.15-168.83-38.09-278.99-121.47-408.71l-42.2-64.86-78.23 77.21c-43.24 43.24-83.38 78.25-88.53 78.25-5.15 0-45.29-35.01-88.53-78.25Zm0-60.74c7.206 0 45.293 31.91 84.408 72.07 39.12 39.12 76.17 72.06 81.32 72.06 6.18 0 44.26-32.94 84.41-73.09 49.41-49.42 79.26-72.07 90.58-67.95 22.65 9.26 82.35 93.68 124.56 180.16 46.32 94.72 74.11 201.79 83.38 321.21 4.11 51.47 7.2 92.65 8.23 92.65 1.03 0 30.88-10.29 67.94-21.62 93.67-29.85 260.43-37.06 355.13-15.44 95.73 22.65 180.14 56.63 180.14 73.1 0 8.23-19.56 58.68-43.23 112.21-23.68 54.57-41.18 99.87-38.09 101.93 2.06 2.05 43.24 25.73 89.56 53.53 47.35 26.77 88.52 55.59 91.61 62.8 8.24 20.59-47.35 106.04-120.44 183.25-78.23 83.392-186.31 157.516-278.95 191.49-36.03 13.384-67.94 25.738-68.97 26.768-2.06 1.029 9.26 22.649 26.76 47.357 97.79 143.101 159.55 369.593 140 520.931l-7.21 55.593-73.09-8.236c-40.14-4.118-91.61-8.236-113.23-8.236l-41.17-1.029-17.5 100.891c-10.29 54.564-21.62 105.01-25.73 111.187-15.45 25.738-172.94-29.855-274.85-97.803-71.02-47.357-158.52-131.777-203.81-197.666-32.94-47.357-33.97-48.386-49.41-27.796-9.27 12.354-35 45.298-57.65 74.124-54.552 71.036-165.724 157.515-255.279 200.754-88.526 42.21-168.817 64.86-183.228 50.446-5.147-5.147-17.499-55.593-27.793-112.216l-18.529-101.921-41.175 1.029c-21.616 0-73.085 4.118-114.26 8.236l-73.085 8.236-7.205-54.564c-18.529-151.337 43.233-379.888 141.023-521.96 17.5-24.708 28.823-46.328 26.764-47.357-1.03-1.03-32.94-13.384-68.968-26.768-92.643-33.974-200.727-108.098-278.959-191.49-73.085-77.21-128.671-162.66-120.436-183.25 3.088-7.21 44.263-36.03 91.614-62.8 46.321-27.8 87.496-51.48 89.555-53.53 3.088-2.06-14.411-47.36-38.087-101.93-23.675-53.53-43.233-103.98-43.233-112.21 0-16.47 84.408-50.45 180.139-73.1 94.702-21.62 261.46-14.41 355.133 15.44 37.057 11.33 66.909 21.62 67.938 21.62 1.029 0 4.118-41.18 8.235-91.62 4.118-50.45 16.47-128.69 27.793-172.96 23.676-88.54 94.702-234.73 143.082-294.44 18.529-20.59 38.087-38.09 44.263-38.09Z" data-color="1"/>
        </g>
    </g>
</svg>
