<svg width="2475" height="2475" xmlns="http://www.w3.org/2000/svg" xmlns:xlink="http://www.w3.org/1999/xlink" xml:space="preserve" overflow="hidden"><g transform="translate(-961 0)"><path d="M2216.88 234.795C1677.33 234.795 1239.94 672.061 1239.94 1211.5 1239.94 1395.99 1291.16 1568.56 1380.12 1715.8L1203.81 2239.8 1744.69 2066.66C1884.64 2144.04 2045.6 2188.13 2216.88 2188.13 2756.41 2188.13 3193.81 1750.9 3193.81 1211.5 3193.81 672.061 2756.41 234.795 2216.88 234.795ZM2216.88 2032.61C2050.05 2032.61 1894.7 1982.58 1765 1896.81L1449.37 1997.85 1551.95 1692.91C1453.63 1557.54 1395.53 1391.19 1395.53 1211.48 1395.53 758.695 1763.99 390.336 2216.88 390.336 2669.77 390.336 3038.24 758.695 3038.24 1211.48 3038.24 1664.24 2669.77 2032.61 2216.88 2032.61Z" stroke="#111111" stroke-width="27.5" stroke-miterlimit="8" fill="#111111" fill-rule="evenodd"/><path d="M1987.18 807.145C1971.36 769.034 1959.25 767.742 1934.81 766.581 1926.43 766.179 1917.34 765.795 1907.4 765.795 1875.91 765.795 1843.27 775.063 1823.6 795.182 1799.66 819.663 1739.81 877.003 1739.81 994.739 1739.81 1112.49 1825.59 1226.28 1837.54 1242.24 1849.53 1258.21 2004.86 1503.37 2246.51 1603.48 2435.14 1681.57 2491.13 1674.63 2534.17 1665.2 2596.79 1651.55 2675.42 1605.44 2695.36 1549.58 2715.3 1493.68 2715.3 1445.79 2709.33 1435.85 2703.34 1425.83 2687.38 1419.89 2663.45 1407.89 2639.49 1395.91 2521.79 1338.03 2499.84 1330.05 2477.89 1322.09 2457.62 1324.53 2440.73 1347.87 2417.46 1380.08 2395.05 1413.2 2376.5 1432.85 2361.92 1448.26 2338.5 1450.42 2318.35 1441.85 2291.85 1430.56 2217.27 1404.58 2125.81 1323.08 2054.66 1259.66 2006.61 1181.31 1992.64 1157.33 1978.67 1133.41 1991.41 1119.13 2002.17 1106.11 2014.45 1091.24 2025.77 1080.56 2037.74 1066.61 2049.71 1052.63 2056.4 1045.19 2064.38 1029.2 2072.36 1013.24 2066.99 996.773 2061 984.789 2054.99 972.798 2007.07 855.08 1987.18 807.145Z" stroke="#111111" stroke-width="27.5" stroke-miterlimit="8" fill="#111111" fill-rule="evenodd"/></g></svg>